#!OML:ASF H:\LiuWeirdWalks\Patient Classification 1\Patient 1\Session 1\male.ASF
:FULLY-SPECIFIED
:DEGREES
438
root -0.684934 18.0365 -21.6627 -0.214275 7.68266 -6.25575
lowerback 5.92327 0.996049 6.48518
upperback 0.233776 1.90475 4.1195
thorax -3.01738 0.886939 0.469723
lowerneck -19.6553 1.4264 11.5108
upperneck 23.4023 2.26938 -14.4795
head 11.1101 0.302333 -7.02563
rclavicle -3.84648e-014 -7.15625e-015
rhumerus -36.0052 -6.88237 -76.5486
rradius 40.2848
rwrist -10.7509
rhand -18.8977 -2.27645
rfingers 7.12502
rthumb 7.40393 -32.1269
lclavicle -3.84648e-014 -7.15625e-015
lhumerus -44.1917 -0.826933 86.6816
lradius 39.66
lwrist 13.7601
lhand -13.0478 0.756542
lfingers 7.12502
lthumb 13.0471 30.3285
rfemur -2.43952 -2.1453 33.1562
rtibia 18.8019
rfoot -11.4607 -18.1362
rtoes 1.49434
lfemur -34.9674 -2.50067 -7.21887
ltibia 56.2086
lfoot -5.72534 -2.54492
ltoes -16.7849
439
root -0.684628 18.0369 -21.6393 -0.252897 7.71565 -6.27656
lowerback 5.94098 1.07794 6.51365
upperback 0.248458 2.01665 4.12829
thorax -3.00718 0.942661 0.453804
lowerneck -19.5942 1.33423 11.4782
upperneck 23.2509 2.15419 -14.5311
head 11.0233 0.241622 -7.04487
rclavicle 2.25124e-014 -1.35174e-014
rhumerus -35.8313 -6.9168 -76.537
rradius 40.1885
rwrist -10.7595
rhand -18.8555 -2.28161
rfingers 7.12502
rthumb 7.44464 -32.1306
lclavicle 2.25124e-014 -1.35174e-014
lhumerus -44.2824 -0.860074 86.7121
lradius 39.7383
lwrist 13.7778
lhand -13.0078 0.719572
lfingers 7.12502
lthumb 13.0857 30.289
rfemur -2.20362 -2.14517 33.1919
rtibia 18.5682
rfoot -11.4075 -18.1818
rtoes 1.5177
lfemur -35.0737 -2.5995 -7.28504
ltibia 55.0541
lfoot -5.89372 -2.41151
ltoes -16.7814
440
root -0.68461 18.0375 -21.6158 -0.279306 7.756 -6.28995
lowerback 5.9506 1.15863 6.53439
upperback 0.253382 2.12619 4.1316
thorax -3.00265 0.997002 0.436778
lowerneck -19.5034 1.24274 11.4525
upperneck 23.0835 2.03696 -14.5747
head 10.9246 0.182361 -7.06051
rclavicle 6.36111e-015 1.66979e-014
rhumerus -35.6746 -6.95511 -76.5285
rradius 40.0904
rwrist -10.7477
rhand -18.795 -2.29439
rfingers 7.12502
rthumb 7.50305 -32.1413
lclavicle 6.36111e-015 1.66979e-014
lhumerus -44.3987 -0.895691 86.7368
lradius 39.8407
lwrist 13.7914
lhand -12.9779 0.680079
lfingers 7.12502
lthumb 13.1145 30.2477
rfemur -1.9801 -2.13541 33.2232
rtibia 18.3338
rfoot -11.3522 -18.2407
rtoes 1.54985
lfemur -35.1737 -2.70905 -7.35409
ltibia 53.8737
lfoot -6.07937 -2.25237
ltoes -16.8481
441
root -0.684699 18.0381 -21.5918 -0.298585 7.79361 -6.29533
lowerback 5.9584 1.24334 6.54815
upperback 0.249536 2.2408 4.12763
thorax -3.00591 1.05359 0.415635
lowerneck -19.4346 1.15105 11.4322
upperneck 22.9556 1.91764 -14.6128
head 10.8447 0.122813 -7.07813
rclavicle -1.20265e-014 7.95139e-016
rhumerus -35.5259 -7.01761 -76.5223
rradius 39.9744
rwrist -10.6985
rhand -18.736 -2.27497
rfingers 7.12502
rthumb 7.55994 -32.1199
lclavicle -1.20265e-014 7.95139e-016
lhumerus -44.5416 -0.937073 86.7569
lradius 39.9647
lwrist 13.817
lhand -12.9786 0.661909
lfingers 7.12502
lthumb 13.1139 30.2296
rfemur -1.75802 -2.11403 33.2484
rtibia 18.0907
rfoot -11.2885 -18.308
rtoes 1.57741
lfemur -35.2577 -2.81999 -7.42758
ltibia 52.6729
lfoot -6.27499 -2.06693
ltoes -16.9166
442
root -0.684694 18.0387 -21.5674 -0.320239 7.81196 -6.30864
lowerback 5.96585 1.33273 6.57022
upperback 0.245956 2.36214 4.1238
thorax -3.00802 1.11341 0.389529
lowerneck -19.4115 1.07238 11.4331
upperneck 22.8775 1.81557 -14.6709
head 10.7955 0.0696257 -7.1093
rclavicle 1.2424e-015 -2.38542e-015
rhumerus -35.3637 -7.09715 -76.519
rradius 39.8311
rwrist -10.6254
rhand -18.676 -2.21469
rfingers 7.12502
rthumb 7.61786 -32.0575
lclavicle 1.2424e-015 -2.38542e-015
lhumerus -44.6978 -0.968416 86.7713
lradius 40.1023
lwrist 13.8518
lhand -13.0132 0.671367
lfingers 7.12502
lthumb 13.0805 30.2412
rfemur -1.52197 -2.07081 33.2836
rtibia 17.8232
rfoot -11.2028 -18.378
rtoes 1.59683
lfemur -35.3154 -2.91714 -7.48817
ltibia 51.4576
lfoot -6.47189 -1.8465
ltoes -16.986
443
root -0.684536 18.039 -21.5428 -0.352696 7.80153 -6.34947
lowerback 5.98309 1.42983 6.61885
upperback 0.246711 2.49634 4.12534
thorax -3.00966 1.17935 0.353091
lowerneck -19.4878 1.0119 11.4575
upperneck 22.8926 1.73541 -14.7468
head 10.8037 0.0240271 -7.15727
rclavicle 2.55935e-014 -3.73715e-014
rhumerus -35.2053 -7.18587 -76.5175
rradius 39.6714
rwrist -10.4854
rhand -18.6313 -2.1004
rfingers 7.12502
rthumb 7.66103 -31.9416
lclavicle 2.55935e-014 -3.73715e-014
lhumerus -44.8548 -0.989156 86.7784
lradius 40.2446
lwrist 13.8859
lhand -13.0647 0.710782
lfingers 7.12502
lthumb 13.0308 30.2838
rfemur -1.25972 -1.99973 33.3497
rtibia 17.5222
rfoot -11.0922 -18.4459
rtoes 1.60954
lfemur -35.3435 -2.99099 -7.51389
ltibia 50.2349
lfoot -6.66583 -1.59972
ltoes -17.0482
444
root -0.683535 18.0397 -21.5164 -0.406706 7.75752 -6.40988
lowerback 5.99974 1.53467 6.69662
upperback 0.265029 2.6414 4.12757
thorax -2.99075 1.25102 0.300709
lowerneck -19.5693 0.92739 11.4268
upperneck 22.9345 1.62756 -14.7738
head 10.8173 -0.0335969 -7.18179
rclavicle 8.20484e-014 7.15625e-015
rhumerus -35.0247 -7.28408 -76.5272
rradius 39.4871
rwrist -10.2942
rhand -18.6237 -1.9829
rfingers 7.12502
rthumb 7.66835 -31.8239
lclavicle 8.20484e-014 7.15625e-015
lhumerus -44.9941 -1.00244 86.7757
lradius 40.3793
lwrist 13.9265
lhand -13.1131 0.757034
lfingers 7.12502
lthumb 12.9842 30.333
rfemur -0.947861 -1.91879 33.433
rtibia 17.1805
rfoot -10.9615 -18.4935
rtoes 1.60773
lfemur -35.3195 -3.0477 -7.51729
ltibia 49.0063
lfoot -6.85574 -1.31252
ltoes -17.1451
445
root -0.682147 18.0405 -21.4891 -0.467158 7.69541 -6.48751
lowerback 5.99986 1.64514 6.79422
upperback 0.295805 2.79272 4.13262
thorax -2.94814 1.32637 0.240662
lowerneck -19.6419 0.856132 11.4261
upperneck 22.9434 1.53179 -14.8196
head 10.8195 -0.0850715 -7.21514
rclavicle -2.24627e-014 2.62396e-014
rhumerus -34.8258 -7.39343 -76.5421
rradius 39.2879
rwrist -10.0664
rhand -18.6438 -1.88506
rfingers 7.12502
rthumb 7.64901 -31.7267
lclavicle -2.24627e-014 2.62396e-014
lhumerus -45.1161 -1.0099 86.7665
lradius 40.5073
lwrist 13.9796
lhand -13.1444 0.800075
lfingers 7.12502
lthumb 12.954 30.378
rfemur -0.609961 -1.83542 33.5322
rtibia 16.805
rfoot -10.8151 -18.5225
rtoes 1.59711
lfemur -35.2684 -3.09491 -7.50004
ltibia 47.7735
lfoot -7.0249 -0.995405
ltoes -17.2563
446
root -0.680407 18.042 -21.4609 -0.523415 7.62067 -6.56444
lowerback 5.99139 1.75621 6.88882
upperback 0.325128 2.94385 4.13932
thorax -2.90197 1.40181 0.184514
lowerneck -19.68 0.809135 11.4868
upperneck 22.8987 1.46293 -14.9168
head 10.8002 -0.123929 -7.27159
rclavicle -3.46382e-014 -3.10104e-014
rhumerus -34.6376 -7.48243 -76.5625
rradius 39.0968
rwrist -9.84271
rhand -18.679 -1.80577
rfingers 7.12502
rthumb 7.61495 -31.6487
lclavicle -3.46382e-014 -3.10104e-014
lhumerus -45.2428 -0.999228 86.7495
lradius 40.6319
lwrist 14.0354
lhand -13.1608 0.817334
lfingers 7.12502
lthumb 12.9382 30.3962
rfemur -0.262072 -1.75728 33.6267
rtibia 16.4119
rfoot -10.6581 -18.5282
rtoes 1.55998
lfemur -35.1988 -3.13561 -7.48382
ltibia 46.5336
lfoot -7.18685 -0.648311
ltoes -17.3932
447
root -0.678957 18.0441 -21.4326 -0.562193 7.57256 -6.61814
lowerback 5.9663 1.86177 6.95831
upperback 0.350151 3.08424 4.13786
thorax -2.85179 1.47233 0.135381
lowerneck -19.6552 0.746659 11.5269
upperneck 22.7985 1.37299 -14.9892
head 10.7445 -0.169905 -7.31181
rclavicle -4.51738e-014 -2.38542e-015
rhumerus -34.4557 -7.57204 -76.5889
rradius 38.9236
rwrist -9.64748
rhand -18.7226 -1.76568
rfingers 7.12502
rthumb 7.57288 -31.6101
lclavicle -4.51738e-014 -2.38542e-015
lhumerus -45.3569 -0.979549 86.7227
lradius 40.7349
lwrist 14.0931
lhand -13.1527 0.795368
lfingers 7.12502
lthumb 12.946 30.3738
rfemur 0.0660101 -1.70268 33.695
rtibia 16.027
rfoot -10.5104 -18.5279
rtoes 1.51701
lfemur -35.133 -3.19417 -7.49421
ltibia 45.2852
lfoot -7.33727 -0.292699
ltoes -17.5006
448
root -0.677651 18.0466 -21.4047 -0.579733 7.54755 -6.64492
lowerback 5.93436 1.95891 6.99913
upperback 0.355286 3.21208 4.12936
thorax -2.81984 1.53618 0.0958403
lowerneck -19.5955 0.701392 11.6145
upperneck 22.673 1.30285 -15.0973
head 10.6763 -0.205774 -7.36909
rclavicle -2.84262e-014 -4.85035e-014
rhumerus -34.2999 -7.64303 -76.6201
rradius 38.7693
rwrist -9.52014
rhand -18.7681 -1.77353
rfingers 7.12502
rthumb 7.52895 -31.6195
lclavicle -2.84262e-014 -4.85035e-014
lhumerus -45.5001 -0.947524 86.6894
lradius 40.8342
lwrist 14.143
lhand -13.1533 0.758705
lfingers 7.12502
lthumb 12.9454 30.3371
rfemur 0.357365 -1.6697 33.7317
rtibia 15.6719
rfoot -10.3837 -18.5184
rtoes 1.47148
lfemur -35.0757 -3.26572 -7.53758
ltibia 44.0281
lfoot -7.46809 0.0807197
ltoes -17.5656
449
root -0.676794 18.0491 -21.3771 -0.583312 7.54944 -6.64295
lowerback 5.91165 2.0462 7.00327
upperback 0.350029 3.32598 4.11481
thorax -2.80601 1.59292 0.0708575
lowerneck -19.5608 0.650097 11.6787
upperneck 22.5957 1.229 -15.1878
head 10.6297 -0.243894 -7.41958
rclavicle 3.38431e-014 6.36111e-015
rhumerus -34.1533 -7.69874 -76.6606
rradius 38.6399
rwrist -9.4642
rhand -18.8154 -1.81253
rfingers 7.12502
rthumb 7.48333 -31.6602
lclavicle 3.38431e-014 6.36111e-015
lhumerus -45.655 -0.896545 86.6495
lradius 40.933
lwrist 14.1898
lhand -13.1918 0.730399
lfingers 7.12502
lthumb 12.9083 30.3112
rfemur 0.613924 -1.65931 33.7365
rtibia 15.3587
rfoot -10.2821 -18.5047
rtoes 1.42239
lfemur -35.0198 -3.34493 -7.61788
ltibia 42.7661
lfoot -7.57955 0.462239
ltoes -17.5972
450
root -0.67593 18.0516 -21.35 -0.577421 7.57886 -6.61564
lowerback 5.88545 2.12226 6.98219
upperback 0.348735 3.42246 4.09469
thorax -2.78792 1.64149 0.0556129
lowerneck -19.595 0.626415 11.77
upperneck 22.569 1.18877 -15.298
head 10.6208 -0.268181 -7.48372
rclavicle -4.22417e-015 -2.06736e-014
rhumerus -33.9881 -7.73795 -76.713
rradius 38.5295
rwrist -9.51709
rhand -18.8679 -1.88928
rfingers 7.12502
rthumb 7.43268 -31.7387
lclavicle -4.22417e-015 -2.06736e-014
lhumerus -45.7899 -0.82285 86.605
lradius 41.014
lwrist 14.226
lhand -13.2795 0.764166
lfingers 7.12502
lthumb 12.8238 30.3503
rfemur 0.842877 -1.68464 33.7087
rtibia 15.0805
rfoot -10.2037 -18.4746
rtoes 1.37024
lfemur -34.9618 -3.43229 -7.73535
ltibia 41.5065
lfoot -7.6679 0.849553
ltoes -17.6271
451
root -0.675175 18.0541 -21.3226 -0.571521 7.62679 -6.58071
lowerback 5.8629 2.19098 6.94382
upperback 0.341109 3.50912 4.07881
thorax -2.78025 1.68506 0.0547559
lowerneck -19.7019 0.572039 11.7369
upperneck 22.7084 1.12753 -15.3098
head 10.6819 -0.302971 -7.50315
rclavicle -2.10215e-014 2.22639e-014
rhumerus -33.8355 -7.75338 -76.7663
rradius 38.4328
rwrist -9.61923
rhand -18.9353 -2.00392
rfingers 7.12502
rthumb 7.36759 -31.8556
lclavicle -2.10215e-014 2.22639e-014
lhumerus -45.9405 -0.73595 86.5662
lradius 41.0903
lwrist 14.2715
lhand -13.4097 0.845483
lfingers 7.12502
lthumb 12.6982 30.4394
rfemur 1.06299 -1.74167 33.668
rtibia 14.8208
rfoot -10.1386 -18.4256
rtoes 1.31301
lfemur -34.8961 -3.52166 -7.86847
ltibia 40.2588
lfoot -7.746 1.23947
ltoes -17.6462
452
root -0.674275 18.0567 -21.2941 -0.577547 7.67716 -6.55616
lowerback 5.83551 2.25738 6.91404
upperback 0.345664 3.59204 4.06846
thorax -2.75725 1.72734 0.0557532
lowerneck -19.8192 0.50418 11.6625
upperneck 22.85 1.05343 -15.2979
head 10.7437 -0.344886 -7.50812
rclavicle 7.8023e-015 -9.54166e-015
rhumerus -33.6758 -7.76247 -76.8215
rradius 38.3441
rwrist -9.72368
rhand -19.0049 -2.1342
rfingers 7.12502
rthumb 7.30039 -31.9883
lclavicle 7.8023e-015 -9.54166e-015
lhumerus -46.0723 -0.634387 86.5264
lradius 41.1498
lwrist 14.2996
lhand -13.5548 0.948824
lfingers 7.12502
lthumb 12.5584 30.5514
rfemur 1.29899 -1.81373 33.6355
rtibia 14.5604
rfoot -10.0785 -18.361
rtoes 1.24602
lfemur -34.8087 -3.60586 -7.99461
ltibia 39.0315
lfoot -7.82563 1.63344
ltoes -17.7059
